<?xml version="1.0" encoding="UTF-8" standalone="no"?>
<!-- Created with Inkscape (http://www.inkscape.org/) -->

<svg
   width="137.74174mm"
   height="155.4731mm"
   viewBox="0 0 137.74174 155.4731"
   version="1.1"
   id="svg5"
   inkscape:version="1.2 (dc2aedaf03, 2022-05-15)"
   sodipodi:docname="WaveContracting.svg"
   xmlns:inkscape="http://www.inkscape.org/namespaces/inkscape"
   xmlns:sodipodi="http://sodipodi.sourceforge.net/DTD/sodipodi-0.dtd"
   xmlns="http://www.w3.org/2000/svg"
   xmlns:svg="http://www.w3.org/2000/svg">
  <sodipodi:namedview
     id="namedview7"
     pagecolor="#ffffff"
     bordercolor="#eeeeee"
     borderopacity="1"
     inkscape:showpageshadow="0"
     inkscape:pageopacity="1"
     inkscape:pagecheckerboard="0"
     inkscape:deskcolor="#505050"
     inkscape:document-units="mm"
     showgrid="false"
     inkscape:zoom="0.71624579"
     inkscape:cx="68.412269"
     inkscape:cy="342.75943"
     inkscape:window-width="958"
     inkscape:window-height="981"
     inkscape:window-x="-8"
     inkscape:window-y="0"
     inkscape:window-maximized="1"
     inkscape:current-layer="layer1" />
  <defs
     id="defs2">
    <marker
       style="overflow:visible"
       id="RoundedArrow"
       refX="0"
       refY="0"
       orient="auto-start-reverse"
       inkscape:stockid="RoundedArrow"
       markerWidth="5"
       markerHeight="5"
       viewBox="0 0 6.1347524 5.9304951"
       inkscape:isstock="true"
       inkscape:collect="always"
       preserveAspectRatio="xMidYMid">
      <path
         transform="scale(0.7)"
         d="m -0.21114562,-4.1055728 6.42229122,3.21114561 a 1,1 90 0 1 0,1.78885438 L -0.21114562,4.1055728 A 1.236068,1.236068 31.717474 0 1 -2,3 v -6 a 1.236068,1.236068 148.28253 0 1 1.78885438,-1.1055728 z"
         style="fill:context-stroke;fill-rule:evenodd;stroke:none"
         id="path1367" />
    </marker>
  </defs>
  <g
     inkscape:label="Ebene 1"
     inkscape:groupmode="layer"
     id="layer1"
     transform="translate(-38.625392,-31.606725)">
    <path
       style="fill:none;fill-opacity:1;stroke:#000000;stroke-width:0.5;stroke-linecap:round;stroke-dasharray:none;stroke-opacity:1;marker-end:url(#RoundedArrow)"
       d="m 67.83114,128.14527 5.2437,-2.68151"
       id="path6124" />
    <path
       style="fill:none;fill-opacity:1;stroke:#000000;stroke-width:0.5;stroke-linecap:round;stroke-dasharray:none;stroke-opacity:1;marker-end:url(#RoundedArrow)"
       d="m 109.35066,158.93208 -0.14346,-5.88781"
       id="path6136" />
    <path
       style="fill:none;fill-opacity:1;stroke:#000000;stroke-width:0.5;stroke-linecap:round;stroke-dasharray:none;stroke-opacity:1;marker-end:url(#RoundedArrow)"
       d="m 132.37662,146.69865 -3.82949,-4.47458"
       id="path6140" />
    <path
       style="fill:none;fill-opacity:1;stroke:#000000;stroke-width:0.5;stroke-linecap:round;stroke-dasharray:none;stroke-opacity:1;marker-end:url(#RoundedArrow)"
       d="m 150.06665,120.67615 -5.64357,-1.68438"
       id="path6144" />
    <path
       style="fill:none;fill-opacity:1;stroke:#000000;stroke-width:0.5;stroke-linecap:round;stroke-dasharray:none;stroke-opacity:1;marker-end:url(#RoundedArrow)"
       d="m 149.37832,89.245963 -5.52363,2.043627"
       id="path6148" />
    <path
       style="fill:none;fill-opacity:1;stroke:#000000;stroke-width:0.5;stroke-linecap:round;stroke-dasharray:none;stroke-opacity:1;marker-end:url(#RoundedArrow)"
       d="m 135.42427,61.030422 -3.34706,4.846039"
       id="path6152" />
    <path
       style="fill:none;fill-opacity:1;stroke:#000000;stroke-width:0.5;stroke-linecap:round;stroke-dasharray:none;stroke-opacity:1;marker-end:url(#RoundedArrow)"
       d="m 65.7796,94.47445 5.85391,0.647016"
       id="path6156" />
    <path
       style="fill:none;fill-opacity:1;stroke:#000000;stroke-width:0.5;stroke-linecap:round;stroke-dasharray:none;stroke-opacity:1;marker-end:url(#RoundedArrow)"
       d="m 75.07277,64.09236 4.34867,3.971902"
       id="path6160" />
    <path
       style="fill:none;fill-opacity:1;stroke:#000000;stroke-width:0.5;stroke-linecap:round;stroke-dasharray:none;stroke-opacity:1;marker-end:url(#RoundedArrow)"
       d="m 105.87715,58.761895 0.8999,5.820402"
       id="path6164" />
    <path
       style="fill:none;fill-opacity:1;stroke:#000000;stroke-width:0.5;stroke-linecap:round;stroke-dasharray:none;stroke-opacity:1;marker-end:url(#RoundedArrow)"
       d="m 83.66148,153.83088 3.34924,-4.84453"
       id="path6184" />
    <path
       id="path5310"
       style="fill:none;fill-opacity:1;stroke:#000000;stroke-width:0.8;stroke-linecap:round;stroke-dasharray:none;stroke-dashoffset:0;stroke-opacity:1"
       d="m 94.931089,164.21668 a 25.304104,25.304104 0 0 1 14.596891,-4.6346 25.304104,25.304104 0 0 1 13.96594,4.20315" />
    <path
       id="circle4221"
       style="fill:none;fill-opacity:1;stroke:#000000;stroke-width:0.8;stroke-linecap:round;stroke-dasharray:none;stroke-dashoffset:0;stroke-opacity:1"
       d="m 123.48186,163.78499 a 25.304104,25.304104 0 0 1 25.20283,-23.04246 25.304104,25.304104 0 0 1 3.56257,0.25204" />
    <path
       id="circle4223"
       style="fill:none;fill-opacity:1;stroke:#000000;stroke-width:0.8;stroke-linecap:round;stroke-dasharray:none;stroke-dashoffset:0;stroke-opacity:1"
       d="m 152.24634,140.99674 a 25.304104,25.304104 0 0 1 -3.37694,-12.62922 25.304104,25.304104 0 0 1 16.81351,-23.8371" />
    <path
       id="circle4225"
       style="fill:none;fill-opacity:1;stroke:#000000;stroke-width:0.8;stroke-linecap:round;stroke-dasharray:none;stroke-dashoffset:0;stroke-opacity:1"
       d="M 165.68757,104.54982 A 25.304104,25.304104 0 0 1 147.76119,80.345139 25.304104,25.304104 0 0 1 153.21188,64.656294" />
    <path
       id="path5322"
       style="fill:none;fill-opacity:1;stroke:#000000;stroke-width:0.8;stroke-linecap:round;stroke-dasharray:none;stroke-dashoffset:0;stroke-opacity:1"
       d="m 65.037879,152.72635 a 25.304104,25.304104 0 0 1 7.919206,-1.27113 25.304104,25.304104 0 0 1 21.888198,12.60747" />
    <path
       id="path5339"
       style="fill:none;fill-opacity:1;stroke:#000000;stroke-width:0.8;stroke-linecap:round;stroke-dasharray:none;stroke-dashoffset:0;stroke-opacity:1"
       d="M 50.930964,113.49532 A 25.304104,25.304104 0 0 1 69.817158,137.972 v 0 a 25.304104,25.304104 0 0 1 -4.762485,14.77631" />
    <path
       id="path4486"
       style="fill:none;stroke:#000000;stroke-width:0.8;stroke-linecap:round"
       d="m 56.555501,70.503344 a 25.304104,25.304104 0 0 1 9.56763,19.815677 v 0 A 25.304104,25.304104 0 0 1 50.958934,113.50264" />
    <path
       id="circle4233"
       style="fill:none;fill-opacity:1;stroke:#000000;stroke-width:0.8;stroke-linecap:round;stroke-dasharray:none;stroke-dashoffset:0;stroke-opacity:1"
       d="m 82.905496,50.636582 a 25.304104,25.304104 0 0 1 -24.724531,19.91938 25.304104,25.304104 0 0 1 -1.637102,-0.05301" />
    <path
       id="circle4237"
       style="fill:none;fill-opacity:1;stroke:#000000;stroke-width:0.8;stroke-linecap:round;stroke-dasharray:none;stroke-dashoffset:0;stroke-opacity:1"
       d="M 153.21723,64.670097 A 25.304104,25.304104 0 0 1 149.05409,65.014915 25.304104,25.304104 0 0 1 124.3492,45.184944" />
    <g
       id="g4317"
       transform="translate(-48.16092,-62.198232)"
       style="stroke:#0000ff">
      <path
         style="fill:none;fill-opacity:1;stroke:#0000ff;stroke-width:0.8;stroke-linecap:round;stroke-dasharray:none;stroke-opacity:1"
         d="m 104.54825,105.65645 3.58727,3.58728"
         id="path4313" />
      <path
         style="fill:none;fill-opacity:1;stroke:#0000ff;stroke-width:0.8;stroke-linecap:round;stroke-dasharray:none;stroke-opacity:1"
         d="m 104.54825,109.24373 3.58727,-3.58728"
         id="path4315" />
    </g>
    <g
       id="g4323"
       transform="translate(-4.5713619,-73.649725)"
       style="stroke:#0000ff">
      <path
         style="fill:none;fill-opacity:1;stroke:#0000ff;stroke-width:0.8;stroke-linecap:round;stroke-dasharray:none;stroke-opacity:1"
         d="m 104.54825,105.65645 3.58727,3.58728"
         id="path4319" />
      <path
         style="fill:none;fill-opacity:1;stroke:#0000ff;stroke-width:0.8;stroke-linecap:round;stroke-dasharray:none;stroke-opacity:1"
         d="m 104.54825,109.24373 3.58727,-3.58728"
         id="path4321" />
    </g>
    <g
       id="g4329"
       transform="translate(-65.522858,-17.131067)"
       style="stroke:#0000ff">
      <path
         style="fill:none;fill-opacity:1;stroke:#0000ff;stroke-width:0.8;stroke-linecap:round;stroke-dasharray:none;stroke-opacity:1"
         d="m 104.54825,105.65645 3.58727,3.58728"
         id="path4325" />
      <path
         style="fill:none;fill-opacity:1;stroke:#0000ff;stroke-width:0.8;stroke-linecap:round;stroke-dasharray:none;stroke-opacity:1"
         d="m 104.54825,109.24373 3.58727,-3.58728"
         id="path4327" />
    </g>
    <g
       id="g4335"
       transform="translate(-61.828831,30.52191)"
       style="stroke:#0000ff">
      <path
         style="fill:none;fill-opacity:1;stroke:#0000ff;stroke-width:0.8;stroke-linecap:round;stroke-dasharray:none;stroke-opacity:1"
         d="m 104.54825,105.65645 3.58727,3.58728"
         id="path4331" />
      <path
         style="fill:none;fill-opacity:1;stroke:#0000ff;stroke-width:0.8;stroke-linecap:round;stroke-dasharray:none;stroke-opacity:1"
         d="m 104.54825,109.24373 3.58727,-3.58728"
         id="path4333" />
    </g>
    <g
       id="g4341"
       transform="translate(-33.3848,69.309233)"
       style="stroke:#0000ff">
      <path
         style="fill:none;fill-opacity:1;stroke:#0000ff;stroke-width:0.8;stroke-linecap:round;stroke-dasharray:none;stroke-opacity:1"
         d="m 104.54825,105.65645 3.58727,3.58728"
         id="path4337" />
      <path
         style="fill:none;fill-opacity:1;stroke:#0000ff;stroke-width:0.8;stroke-linecap:round;stroke-dasharray:none;stroke-opacity:1"
         d="m 104.54825,109.24373 3.58727,-3.58728"
         id="path4339" />
    </g>
    <g
       id="g4347"
       transform="translate(3.186092,77.436095)"
       style="stroke:#0000ff">
      <path
         style="fill:none;fill-opacity:1;stroke:#0000ff;stroke-width:0.8;stroke-linecap:round;stroke-dasharray:none;stroke-opacity:1"
         d="m 104.54825,105.65645 3.58727,3.58728"
         id="path4343" />
      <path
         style="fill:none;fill-opacity:1;stroke:#0000ff;stroke-width:0.8;stroke-linecap:round;stroke-dasharray:none;stroke-opacity:1"
         d="m 104.54825,109.24373 3.58727,-3.58728"
         id="path4345" />
    </g>
    <g
       id="g4353"
       transform="translate(42.342807,58.596541)"
       style="stroke:#0000ff">
      <path
         style="fill:none;fill-opacity:1;stroke:#0000ff;stroke-width:0.8;stroke-linecap:round;stroke-dasharray:none;stroke-opacity:1"
         d="m 104.54825,105.65645 3.58727,3.58728"
         id="path4349" />
      <path
         style="fill:none;fill-opacity:1;stroke:#0000ff;stroke-width:0.8;stroke-linecap:round;stroke-dasharray:none;stroke-opacity:1"
         d="m 104.54825,109.24373 3.58727,-3.58728"
         id="path4351" />
    </g>
    <g
       id="g4359"
       transform="translate(67.831623,20.917433)"
       style="stroke:#0000ff">
      <path
         style="fill:none;fill-opacity:1;stroke:#0000ff;stroke-width:0.8;stroke-linecap:round;stroke-dasharray:none;stroke-opacity:1"
         d="m 104.54825,105.65645 3.58727,3.58728"
         id="path4355" />
      <path
         style="fill:none;fill-opacity:1;stroke:#0000ff;stroke-width:0.8;stroke-linecap:round;stroke-dasharray:none;stroke-opacity:1"
         d="m 104.54825,109.24373 3.58727,-3.58728"
         id="path4357" />
    </g>
    <g
       id="g4365"
       transform="translate(66.723407,-27.104951)"
       style="stroke:#0000ff">
      <path
         style="fill:none;fill-opacity:1;stroke:#0000ff;stroke-width:0.8;stroke-linecap:round;stroke-dasharray:none;stroke-opacity:1"
         d="m 104.54825,105.65645 3.58727,3.58728"
         id="path4361" />
      <path
         style="fill:none;fill-opacity:1;stroke:#0000ff;stroke-width:0.8;stroke-linecap:round;stroke-dasharray:none;stroke-opacity:1"
         d="m 104.54825,109.24373 3.58727,-3.58728"
         id="path4363" />
    </g>
    <g
       id="g4371"
       transform="translate(42.712207,-67.739278)"
       style="stroke:#0000ff">
      <path
         style="fill:none;fill-opacity:1;stroke:#0000ff;stroke-width:0.8;stroke-linecap:round;stroke-dasharray:none;stroke-opacity:1"
         d="m 104.54825,105.65645 3.58727,3.58728"
         id="path4367" />
      <path
         style="fill:none;fill-opacity:1;stroke:#0000ff;stroke-width:0.8;stroke-linecap:round;stroke-dasharray:none;stroke-opacity:1"
         d="m 104.54825,109.24373 3.58727,-3.58728"
         id="path4369" />
    </g>
    <path
       id="circle4508"
       style="fill:none;fill-opacity:1;stroke:#000000;stroke-width:0.8;stroke-linecap:round;stroke-dasharray:none;stroke-dashoffset:0;stroke-opacity:1"
       d="M 124.3664,45.190011 A 25.304104,25.304104 0 0 1 101.77052,59.104469 25.304104,25.304104 0 0 1 82.887323,50.644428" />
    <g
       id="g6118"
       transform="translate(3.7066445,-0.43313103)"
       style="fill:#ff0000;stroke:#ff0000;stroke-opacity:1">
      <path
         style="fill:#ff0000;fill-opacity:1;stroke:#ff0000;stroke-width:0.8;stroke-linecap:round;stroke-dasharray:none;stroke-opacity:1"
         d="m 104.54825,105.65645 3.58727,3.58728"
         id="path6114" />
      <path
         style="fill:#ff0000;fill-opacity:1;stroke:#ff0000;stroke-width:0.8;stroke-linecap:round;stroke-dasharray:none;stroke-opacity:1"
         d="m 104.54825,109.24373 3.58727,-3.58728"
         id="path6116" />
    </g>
  </g>
</svg>
